PathFileType	4	(X/Y/Z)	Patient4_TMGait_0pt3_01_left_21.trc.trc
DataRate	CameraRate	NumFrames	NumMarkers	Units	OrigDataRate	OrigDataStartFrame	OrigNumFrames
52.434456928839	52.434456928839	7	33	mm	52.434456928839	1	       141
Frame#	Time	Sacral			L.Shoulder			Chest			R.Shoulder			Neck			R.ASIS			L.ASIS			R.Thigh.Superior			R.Thigh.Lateral			R.Thigh.Inferior			R.Patella			L.Thigh.Superior			L.Thigh.Lateral			L.Thigh.Inferior			L.Patella			L.Shank.Superior			L.Shank.Lateral			L.Shank.Inferior			R.Shank.Superior			R.Shank.Lateral			R.Shank.Inferior			R.Heel			R.Midfoot.Superior			R.Midfoot.Lateral			R.Toe			L.Heel			L.Midfoot.Lateral			L.Midfoot.Superior			L.Toe			L.Elbow			L.Wrist			R.Elbow			R.Wrist			
		X1	Y1	Z1	X2	Y2	Z2	X3	Y3	Z3	X4	Y4	Z4	X5	Y5	Z5	X6	Y6	Z6	X7	Y7	Z7	X8	Y8	Z8	X9	Y9	Z9	X10	Y10	Z10	X11	Y11	Z11	X12	Y12	Z12	X13	Y13	Z13	X14	Y14	Z14	X15	Y15	Z15	X16	Y16	Z16	X17	Y17	Z17	X18	Y18	Z18	X19	Y19	Z19	X20	Y20	Z20	X21	Y21	Z21	X22	Y22	Z22	X23	Y23	Z23	X24	Y24	Z24	X25	Y25	Z25	X26	Y26	Z26	X27	Y27	Z27	X28	Y28	Z28	X29	Y29	Z29	X30	Y30	Z30	X31	Y31	Z31	X32	Y32	Z32	X33	Y33	Z33	

1	39.310000000000	726.581471167491	992.217357369956	552.316763691370	915.146311188446	1423.527778440920	370.931484483676	1001.941903480527	1357.954918999335	542.192675026445	901.350688367020	1432.188193737001	706.059862801628	886.041898562147	1487.329604284546	526.732569665211	955.465398971584	938.997308747095	678.930976356832	945.738943064744	950.149058439152	401.707144883821	1005.585108934834	738.041070329892	642.619650766358	924.202189779857	621.730872388337	692.151819929227	1004.953765870157	574.666759436774	612.338004183349	1006.829692622025	480.874377794074	613.633287871022	1017.806697303771	750.478499363695	437.160965784511	959.851337833153	627.270784941428	360.873361748261	1049.804006693027	553.197208413321	430.990966615543	1049.153331858688	462.643838360130	421.859903076934	973.430971468644	406.737566850816	406.344606986566	830.197856858339	387.299919864408	347.859157756531	795.065034572781	258.884602371616	394.917340959594	966.679898099835	393.752464639072	615.314234191857	883.789208516796	296.209548541437	672.660886135025	912.105353354032	200.377606451217	605.993416462042	759.665288070184	44.527108965566	574.875686223394	931.884719773768	97.391481808930	612.321388362041	841.908005387998	37.601618855437	649.990051532863	1050.426753008018	41.170429247098	643.178534741401	598.005483663403	232.421643471496	421.245770744911	646.681719952573	174.918127616322	342.398063462810	750.097622746659	155.726315130989	367.473777875520	798.711976207472	27.913336962489	339.378485493394	952.650970346953	1070.796070169906	256.998952562375	1110.001959228334	860.609761546473	259.395080151175	853.090298479764	1094.039665535455	846.335670581034	1005.666490051395	883.667212125586	886.733354095873	
2	39.329071428571	725.731662694271	990.609686239722	556.580492904235	910.647969768675	1421.709717138272	372.295799355298	1000.199684176017	1357.011577547386	542.382914657681	901.996314816294	1431.320085795040	707.653055260355	884.079050968863	1486.104928632219	528.326851186407	956.185831108757	937.876119153255	680.432940812111	944.397996584090	950.327115193709	404.060553167584	1006.066965638792	736.692071371342	643.260862287357	925.071546136444	620.038754219958	692.759676829217	1005.070363378189	573.302452474184	612.165777840563	1006.607943043204	479.051979020944	613.039226854770	1019.962164818407	753.651149382835	439.962812417805	965.578335257005	629.111189766246	363.750572348032	1057.373209414395	557.560637018458	434.196765128005	1059.049433630659	466.739370170237	425.004454991033	984.200120079557	409.451793046817	409.225048191334	840.582157178679	387.975253363637	352.146596010722	808.689959303870	258.382330229059	398.106983018498	965.103769421930	391.982903718126	614.827764032175	881.540467486300	295.413119569761	672.733967815070	908.025335559115	199.452038626011	605.737459790025	753.723302229607	44.622187633483	574.897394180380	926.114281548365	97.287823409671	612.276399825054	836.078848977175	37.623998185302	650.096435092498	1044.565692763823	41.066739787617	643.204498157050	612.023658398991	224.770041236544	426.175235919056	662.115758245773	171.621710839781	345.588609259514	766.258175630652	156.611381303332	369.642079811936	820.025657822331	32.231041565997	337.859575811437	938.305425281722	1066.933109913350	262.286952458261	1075.963270346747	847.132498012846	265.438091501660	866.334480943143	1092.271383571216	848.621466477635	1032.174238630647	894.322006569467	885.531119012240	
3	39.348142857143	724.883527062425	989.064317121975	560.869833959636	906.083498138878	1419.920551422994	373.651985062155	998.458570597447	1356.094773700115	542.514730828714	902.736453837208	1430.508228806996	709.216670613563	882.131129267999	1484.923293265206	529.903736593174	956.877329007851	936.762133997058	681.896977553106	942.872000484896	950.467891707685	406.333425511376	1006.387382122324	735.325870550309	643.871652354030	925.770913763865	618.378709257355	693.396426174908	1004.985721444024	571.926913705299	612.007611488600	1006.158389730586	477.229951530193	612.470303043457	1021.962283935391	756.851739589752	442.675811664227	971.099653764758	631.009424320827	366.560528885196	1064.687214092375	561.970628298437	437.304949106335	1068.741666968636	470.978982247032	428.026105542610	995.024928393758	412.196675032151	411.969623000484	851.194562912248	388.014472864878	356.328457667209	823.187330072194	257.210242636763	401.182617193370	963.332986690022	390.248177575158	614.385519478626	879.102575660540	294.621903192977	672.830395308439	903.778791136841	198.537607479659	605.505952225209	747.654177853416	44.719068136084	574.943588414744	920.187502526145	97.172594514929	612.227792761453	830.108847047185	37.644697421143	650.206644752630	1038.563641328085	40.956782199713	643.232810836361	627.360691624684	215.642526347096	431.035782978058	678.886324336101	167.063951414760	348.713022482799	783.669637936946	156.676009336104	371.723335456544	842.941543974337	36.121294139385	336.265169327782	923.350819973356	1063.225721600248	267.585606173474	1041.153898831966	834.206103860516	271.652106052579	880.059300414508	1090.673886460402	850.761908378479	1059.290542761488	905.949117335215	883.788414807128	
4	39.367214285714	724.061398432485	987.679046642418	565.061886129950	901.563576419131	1418.251265941136	374.955121032477	996.777234410089	1355.258971316470	542.547877762904	903.609355477932	1429.820242455672	710.679376450130	880.271311529053	1483.857248872060	531.405490523894	957.500540202699	935.706640179858	683.252119029130	941.113222565623	950.568164747523	408.416298569791	1006.443907498651	733.983407881645	644.418853841037	926.167570978449	616.826852535978	694.050322004363	1004.573401756218	570.584431738092	611.876871657967	1005.350948379369	475.480662128717	611.961939369757	1023.642463187078	759.990824440761	445.171291944643	976.105390693432	632.938426838361	369.165715785307	1071.350332630493	566.306221960514	440.159700918500	1077.791703632715	475.310716423612	430.764599235590	1005.570676547699	414.926293699172	414.423865802248	861.863836533423	387.138823716822	360.175185020770	838.564410112489	255.156793525150	403.976844199021	961.291980218721	388.623728553928	614.018500063753	876.429809025493	293.869942080281	672.958424884020	899.392903368601	197.675754277816	605.318617923693	741.562261776261	44.818517576347	575.014810612228	914.198797703020	97.046316644580	612.177983230701	824.098264717069	37.662331954253	650.317418633729	1032.522993116719	40.841275712158	643.263830472584	644.259349403551	204.713270584919	435.584227782225	697.221908403877	160.877098492779	351.609918181909	802.463449133835	155.615301117418	373.603487611257	867.577824310978	39.365627733448	334.654548048374	907.947304678036	1059.918330782057	272.735135781313	1006.297178737476	822.547047666990	277.913669158808	894.106704689216	1089.422967824623	852.598917645011	1086.437779475446	918.745173581000	881.258914597394	
5	39.386285714286	723.275168902501	986.547544702171	569.056808392671	897.173738409027	1416.790330115035	376.171312937627	995.203924193381	1354.557943465941	542.445369464443	904.652946711380	1429.319620438944	711.980675803599	878.560609807745	1482.974731769906	532.787606707250	958.026284984513	934.761513377756	684.440697097405	939.116416330866	950.658346424583	410.225310737159	1006.145348300176	732.702036265134	644.874592423712	926.137672988062	615.450965515016	694.713388227872	1003.711210762874	569.315406204968	611.786430079557	1004.053637448359	473.869401872202	611.546854941695	1024.858479943355	762.995592136564	447.354292765391	980.338164981983	634.879795798225	371.447509698927	1077.030696457525	570.466256242112	442.635182945161	1085.833981808453	479.695920394874	433.095078685954	1015.557593240129	417.620943604349	416.467383187594	872.491620244299	385.167047087787	363.471465028261	854.838491542232	252.131127769632	406.342427155807	958.895172838557	387.174181500712	613.753348791706	873.463462123094	293.187961138055	673.126122419879	894.870786525368	196.903220324588	605.191929237294	735.517156119275	44.922146784807	575.112331359697	908.210791357047	96.910451250369	612.127928999594	818.113522434545	37.676521551824	650.426632545897	1026.511304161002	40.721507541622	643.297596902197	662.947243989169	191.852184583911	439.563232554411	717.362032113557	152.873487952592	354.117525747693	822.770988021842	153.277556823450	375.192289647188	894.039926467659	41.878197675198	333.139877554036	892.215610341606	1057.243629377091	277.607910228256	971.985344856102	812.737701140144	284.115383956699	908.378663722411	1088.686946587799	854.001838473670	1113.138780801075	932.918865954546	877.730553810035	
6	39.405357142857	722.521417208574	985.751808777209	572.780098867229	892.974523778554	1415.617305842840	377.278697038436	993.774681442425	1354.040333446631	542.177202479950	905.899753976033	1429.060036624300	713.073758114794	877.044896715064	1482.333639599390	534.020279774246	958.435202263798	933.973752185244	685.420195421048	936.916703688753	950.795824133052	411.706464252829	1005.421893490309	731.513672907780	645.218815570039	925.578809344324	614.305885166310	695.379112785832	1002.294908237696	568.154596063226	611.746325338671	1002.147749554900	472.451269044113	611.250731171241	1025.499013195634	765.811113026916	449.167388294877	983.610446119745	636.821332886611	373.312341086361	1081.483042351284	574.370855640301	444.641714612308	1092.597682553085	484.104623885702	434.936164234839	1024.768034276532	420.285921462130	418.024019046599	883.042965633653	382.047096736774	366.030880148846	871.995802076054	248.191335488103	408.166538826224	956.059674482141	385.949733220127	613.608949374929	870.142601259905	292.601994565065	673.339232500705	890.198724490169	196.250203853509	605.136893379983	729.556029272649	45.032093970177	575.236989970344	902.258380183534	96.768230304961	612.077945873994	812.190174378305	37.688013720361	650.532966483582	1020.564346510375	40.599414906169	643.333766400323	683.566650958696	177.186290021560	442.725226132165	739.483287258224	143.104073800369	356.089671566375	844.661396604021	149.701040139960	376.431095568126	922.343294530007	43.722761415800	331.876428069690	876.261264977765	1055.403317764634	282.113397955597	938.687272933496	805.178357656664	290.163243365956	922.819958395523	1088.612795312023	854.876585629941	1139.008947615631	948.639452423359	873.055867134126	
7	39.424428571429	721.789527175943	985.354417772947	576.182179204789	889.005136438013	1414.795936190308	378.266246481382	992.513382261091	1353.744642429452	541.722755028014	907.373114704940	1429.080463040740	713.925901408415	875.754031760149	1481.976930529897	535.087098014619	958.716446554202	933.379749903978	686.162927784635	934.574900991009	951.050128889661	412.835706412586	1004.231770506473	730.443265824490	645.440194518302	924.418479951934	613.430315393827	696.039427484313	1000.248222720559	567.129569969436	611.761440242800	999.540467475682	471.269108428105	611.088021091543	1025.493497571352	768.399021387530	450.585980995585	985.809428137280	638.753562338359	374.693120973320	1084.557101230371	577.959714342305	446.124070833120	1097.913404048466	488.510225716472	436.248484425912	1033.044835238772	422.945470382382	419.062806317533	893.524283123487	377.862019425392	367.709660657393	889.959368028552	243.539752469184	409.380809437755	952.716499371833	384.984324899313	613.593407683498	866.414415029794	292.132586218552	673.599291090207	885.354898447647	195.739351453367	605.157686942419	723.688919425442	45.150485394123	575.387079210655	896.355619180461	96.625221678542	612.029413185184	806.339206790301	37.698529787197	650.635461928881	1014.692723357937	40.477512362555	643.371674066354	706.122489867864	161.100242368743	444.864456613725	763.637575175821	131.864749759576	357.415184640126	868.094723316593	145.110298800095	377.296106533621	952.359600749245	45.098931221129	331.038182670598	860.197904672323	1054.550462402826	286.198081638220	906.765368938323	800.068187700640	295.974382792178	937.397552898369	1089.315283008397	855.167255419836	1163.741602937585	965.995799491486	867.168948080092	
